<?xml version="1.0" standalone="no"?><!DOCTYPE svg PUBLIC "-//W3C//DTD SVG 1.1//EN" "http://www.w3.org/Graphics/SVG/1.1/DTD/svg11.dtd"><svg t="1609475843396" class="icon" viewBox="0 0 1024 1024" version="1.1" xmlns="http://www.w3.org/2000/svg" p-id="2566" xmlns:xlink="http://www.w3.org/1999/xlink" width="200" height="200"><defs><style type="text/css"></style></defs><path d="M526.336 956.416c-29.696 0-60.416-11.264-82.944-34.816L120.832 599.04c-48.128-48.128-67.584-115.712-52.224-182.272l39.936-247.808c5.12-33.792 31.744-60.416 65.536-65.536l247.808-39.936c66.56-15.36 134.144 4.096 182.272 52.224l322.56 322.56c46.08 46.08 46.08 120.832 0 165.888l-317.44 317.44c-22.528 23.552-52.224 34.816-82.944 34.816zM189.44 184.32l-40.96 249.856c-9.216 38.912 2.048 78.848 30.72 106.496L501.76 864.256c14.336 14.336 36.864 14.336 50.176 0l316.416-316.416c14.336-14.336 14.336-36.864 0-50.176L545.792 174.08c-28.672-28.672-68.608-39.936-106.496-30.72l-3.072 1.024L189.44 184.32z" p-id="2567"></path><path d="M359.424 477.184c-31.744 0-62.464-12.288-87.04-35.84-48.128-48.128-48.128-125.952 0-174.08 48.128-48.128 125.952-48.128 174.08 0 48.128 48.128 48.128 125.952 0 174.08-24.576 24.576-55.296 35.84-87.04 35.84z m0-162.816c-10.24 0-20.48 4.096-28.672 12.288-16.384 16.384-16.384 41.984 0 58.368 16.384 16.384 41.984 16.384 58.368 0 16.384-16.384 16.384-41.984 0-58.368-9.216-9.216-19.456-12.288-29.696-12.288zM670.72 438.272L439.296 670.72c-16.384 16.384-41.984 16.384-58.368 0-16.384-16.384-16.384-41.984 0-58.368l231.424-231.424c16.384-16.384 41.984-16.384 58.368 0 16.384 15.36 16.384 41.984 0 57.344zM676.864 638.976L546.816 770.048c-16.384 16.384-41.984 16.384-58.368 0-16.384-16.384-16.384-41.984 0-58.368l130.048-130.048c16.384-16.384 41.984-16.384 58.368 0 16.384 16.384 16.384 41.984 0 57.344z"  p-id="2568"></path></svg>
